<svg xmlns="http://www.w3.org/2000/svg" width="174" height="38" viewBox="0 0 174 38">
    <g fill="none" fill-rule="evenodd">
        <g>
            <g>
                <g>
                    <path fill="#F15A24" d="M6.201 5.3h10.522v10.445l4.073 4.044c.789-.97 1.263-2.202 1.263-3.54V.002L16.366 0H5.693C4.346 0 3.106.472 2.128 1.255L6.201 5.3z" transform="translate(-44 -139) translate(44 139) translate(.644 .182)"/>
                    <path fill="#2D81AF" d="M15.776 16.603H9.397l-4.162-.066.102-5.068V6.238L1.227 2.16C.461 3.123 0 4.336 0 5.653V16.25c0 3.109 2.562 5.653 5.693 5.653h10.674c1.325 0 2.547-.458 3.518-1.22l-4.11-4.08z" transform="translate(-44 -139) translate(44 139) translate(.644 .182)"/>
                </g>
                <g>
                    <path fill="#2D81AF" d="M16.101.436L10.493 15.494 5.909 15.494.321.436 4.185.436 7.914 11.53 8.199 12.382 8.487 11.533 12.238.436zM28.445 12.769v2.725H17.568v-2.52c1.518-1.112 2.772-2.046 3.732-2.783.991-.76 1.773-1.408 2.318-1.924.57-.541.948-.987 1.158-1.368.215-.393.32-.805.32-1.23 0-.62-.257-1.111-.742-1.428-.451-.289-.981-.437-1.578-.437-.86 0-1.633.158-2.3.461-.563.262-1.094.606-1.578 1.03l-1.71-2.08c.328-.333.68-.624 1.055-.874.449-.298.927-.546 1.424-.737.497-.193 1.012-.338 1.525-.43.514-.092 1.027-.138 1.517-.138.828 0 1.597.113 2.288.34.688.225 1.288.545 1.781.947.492.403.876.891 1.149 1.457.27.563.406 1.198.406 1.89 0 .525-.094 1.045-.285 1.549-.194.51-.5 1.03-.909 1.543-.418.525-.954 1.078-1.6 1.644-.648.568-1.43 1.177-2.32 1.803l-.798.56h6.024z" transform="translate(-44 -139) translate(44 139) translate(27.707 3.325)"/>
                    <path fill="#F15A24" d="M40.712 10.185c-.237-.445-.56-.83-.958-1.143-.406-.313-.866-.572-1.379-.768-.518-.197-1.057-.378-1.602-.541-.549-.163-1.082-.323-1.603-.48-.527-.156-1.006-.344-1.43-.552-.434-.22-.788-.495-1.048-.821-.27-.338-.406-.769-.406-1.279 0-.423.093-.82.278-1.174.188-.353.443-.66.767-.919.318-.254.7-.454 1.133-.593.43-.138.9-.205 1.397-.205.848 0 1.65.153 2.384.455.688.285 1.297.734 1.812 1.337l.627-.704c-.536-.6-1.188-1.073-1.942-1.408-.797-.353-1.745-.532-2.814-.532-.643 0-1.255.093-1.821.271-.567.181-1.07.44-1.497.768-.421.326-.758.729-1 1.196-.24.464-.36.995-.36 1.576 0 .817.202 1.47.608 1.936.415.477.942.866 1.573 1.153.639.292 1.342.531 2.09.712.767.188 1.485.412 2.14.664.666.258 1.23.6 1.672 1.012.464.43.697 1.035.697 1.803 0 .329-.061.68-.185 1.042-.124.372-.349.713-.663 1.02-.312.301-.734.556-1.246.756-.515.197-1.16.298-1.92.298-.54 0-1.046-.061-1.5-.184-.455-.12-.886-.283-1.282-.489-.397-.205-.758-.443-1.07-.71-.266-.22-.506-.454-.715-.694l-.615.722c.528.633 1.218 1.158 2.052 1.564.875.428 1.92.643 3.105.643.958 0 1.77-.13 2.418-.381.642-.25 1.17-.575 1.57-.969.393-.39.675-.826.839-1.297.166-.479.248-.952.248-1.41 0-.667-.118-1.232-.354-1.675M56.291 11.033c-.281.809-.687 1.521-1.2 2.121-.518.6-1.148 1.076-1.872 1.407-.724.335-1.545.504-2.439.504-.909 0-1.74-.169-2.464-.504-.723-.331-1.354-.808-1.87-1.407-.514-.6-.914-1.312-1.19-2.123-.275-.806-.415-1.694-.415-2.643 0-.962.14-1.86.415-2.668.276-.808.676-1.518 1.19-2.112.516-.593 1.147-1.062 1.87-1.394.728-.335 1.555-.505 2.464-.505.894 0 1.715.17 2.439.505.724.332 1.354.801 1.87 1.394.515.59.92 1.3 1.202 2.112.282.809.424 1.706.424 2.668 0 .949-.142 1.837-.424 2.645m.964-5.62c-.328-.913-.803-1.718-1.409-2.388-.606-.673-1.345-1.208-2.203-1.589-.858-.384-1.82-.577-2.863-.577-1.057 0-2.027.193-2.875.577-.849.381-1.588.916-2.191 1.589-.609.673-1.081 1.475-1.412 2.388-.327.912-.497 1.914-.497 2.975 0 1.06.17 2.062.497 2.974.33.913.803 1.715 1.412 2.388.606.673 1.342 1.208 2.19 1.589.852.384 1.819.577 2.876.577 1.042 0 2.005-.193 2.863-.577.855-.381 1.597-.916 2.203-1.589.606-.673 1.081-1.475 1.409-2.388.33-.912.497-1.914.497-2.974 0-1.06-.167-2.063-.497-2.975M69.168 14.798L69.168 15.649 61.13 15.649 61.13 1.104 62.079 1.104 62.079 14.798zM82.651 1.104v8.998c0 1.792-.47 3.227-1.396 4.262-.925 1.03-2.319 1.553-4.151 1.553-.91 0-1.721-.139-2.41-.413-.684-.273-1.266-.66-1.732-1.154-.464-.492-.819-1.104-1.049-1.813-.236-.717-.354-1.535-.354-2.435V1.104h.948v8.977c0 1.545.394 2.775 1.173 3.654.781.882 1.933 1.33 3.424 1.33 1.505 0 2.663-.448 3.438-1.33.77-.88 1.161-2.109 1.161-3.654V1.104h.948zM96.086 1.104L96.086 1.952 91.302 1.952 91.302 15.649 90.353 15.649 90.353 1.952 85.566 1.952 85.566 1.104zM99.004 15.649L99.952 15.649 99.952 1.105 99.004 1.105zM115.835 11.033c-.282.809-.688 1.521-1.2 2.121-.519.6-1.148 1.076-1.873 1.407-.723.335-1.545.504-2.439.504-.909 0-1.739-.169-2.463-.504-.724-.331-1.354-.808-1.87-1.407-.514-.6-.915-1.312-1.19-2.123-.276-.806-.415-1.694-.415-2.643 0-.962.139-1.86.415-2.668.275-.808.676-1.521 1.19-2.112.516-.593 1.146-1.062 1.87-1.394.727-.335 1.554-.505 2.463-.505.894 0 1.716.17 2.44.505.724.332 1.353.801 1.869 1.394.515.59.918 1.3 1.203 2.112.281.809.424 1.706.424 2.668 0 .949-.143 1.837-.424 2.645m.963-5.62c-.327-.913-.803-1.718-1.408-2.388-.607-.673-1.346-1.205-2.204-1.589-.857-.384-1.82-.577-2.863-.577-1.057 0-2.027.193-2.875.577-.848.381-1.588.916-2.19 1.589-.61.673-1.082 1.475-1.413 2.388-.33.912-.496 1.914-.496 2.975 0 1.06.166 2.062.496 2.974.33.913.803 1.715 1.412 2.388.607.673 1.343 1.208 2.19 1.589.853.384 1.819.577 2.876.577 1.043 0 2.006-.193 2.863-.577.855-.381 1.597-.916 2.204-1.589.605-.673 1.08-1.475 1.408-2.388.33-.912.497-1.914.497-2.974 0-1.06-.166-2.063-.497-2.975M132.072 1.104L132.072 15.649 131.072 15.649 121.895 2.951 121.622 2.573 121.622 15.649 120.674 15.649 120.674 1.104 121.719 1.104 130.851 13.624 131.124 13.999 131.124 1.104zM145.485 11.86c0 .455-.082.93-.248 1.41-.16.47-.446.91-.84 1.297-.4.394-.927.72-1.57.968-.644.252-1.46.381-2.414.381-1.188 0-2.233-.215-3.108-.642-.834-.405-1.522-.93-2.052-1.564l.615-.722c.212.24.452.473.715.694.316.268.676.507 1.07.71.397.206.827.37 1.282.489.457.123.96.184 1.5.184.763 0 1.408-.101 1.92-.298.512-.2.934-.454 1.245-.756.319-.307.543-.648.667-1.02.12-.362.182-.713.182-1.042 0-.768-.233-1.376-.697-1.804-.442-.411-1.006-.753-1.672-1.01-.652-.253-1.373-.477-2.137-.665-.748-.181-1.45-.42-2.093-.713-.627-.285-1.158-.676-1.573-1.152-.402-.467-.609-1.119-.609-1.936 0-.58.122-1.113.36-1.576.243-.467.58-.87 1-1.196.428-.328.93-.587 1.498-.768.566-.178 1.18-.27 1.82-.27 1.073 0 2.018.177 2.815.531.754.335 1.41.808 1.946 1.407l-.628.704c-.518-.602-1.127-1.05-1.815-1.336-.733-.302-1.533-.455-2.384-.455-.494 0-.964.067-1.394.206-.434.138-.815.337-1.136.593-.322.258-.579.565-.764.919-.187.353-.281.75-.281 1.174 0 .51.136.94.406 1.278.263.326.615.602 1.05.82.422.21.904.397 1.428.553.52.157 1.054.317 1.603.48.545.163 1.085.344 1.606.541.509.196.972.455 1.375.768.397.313.722.697.957 1.143.237.446.355 1.009.355 1.675" transform="translate(-44 -139) translate(44 139) translate(27.707 3.325)"/>
                </g>
                <path fill="#FFF" fill-rule="nonzero" d="M58 28.33h.708v7.479H58V28.33zm2.67 1.948h.675v.99c.27-.379.569-.663.896-.85.328-.189.685-.283 1.07-.283.392 0 .74.105 1.043.315.304.21.528.494.673.85.144.355.216.91.216 1.662v2.847h-.67V33.17c0-.637-.025-1.062-.076-1.276-.08-.366-.232-.641-.453-.826-.222-.185-.511-.277-.868-.277-.408 0-.773.142-1.096.427-.323.285-.536.637-.639 1.058-.057.244-.089.667-.095 1.27l-.001 2.263h-.675v-5.531zm9.104.605l-.434.472c-.36-.37-.712-.554-1.055-.554-.219 0-.406.076-.562.229-.156.152-.233.33-.233.534 0 .18.064.35.192.513.113.146.333.313.662.502l.148.083c.501.274.842.539 1.022.793.176.258.265.547.265.87 0 .453-.151.838-.453 1.153-.302.316-.68.473-1.133.473-.302 0-.59-.07-.865-.208-.275-.14-.502-.33-.682-.575l.424-.508c.344.41.709.615 1.094.615.27 0 .5-.092.69-.275.189-.183.284-.398.284-.645 0-.204-.063-.385-.188-.544-.11-.137-.34-.304-.69-.503l-.158-.087c-.473-.257-.794-.512-.964-.762-.17-.251-.256-.538-.256-.86 0-.42.136-.769.408-1.047.271-.278.614-.417 1.028-.417.482 0 .967.25 1.456.748zm1.653-.605h.67v1.016c.267-.386.573-.676.92-.869.347-.193.735-.29 1.162-.29.745 0 1.383.283 1.913.85.53.565.795 1.246.795 2.043 0 .813-.262 1.504-.788 2.072-.525.567-1.159.851-1.9.851-.419 0-.802-.091-1.153-.274-.35-.183-.666-.456-.949-.819v2.974h-.67v-7.554zm2.699.544c-.585 0-1.077.215-1.477.645-.4.43-.6.966-.6 1.607 0 .42.089.798.267 1.133.179.336.434.602.767.799.332.196.683.294 1.052.294.364 0 .705-.099 1.025-.297.32-.198.574-.475.763-.831.19-.356.285-.729.285-1.119 0-.393-.094-.766-.282-1.118-.188-.353-.441-.626-.76-.821-.317-.195-.664-.292-1.04-.292zM78.835 28c.154 0 .285.058.395.173.109.115.164.254.164.417 0 .159-.055.296-.164.412-.11.115-.241.172-.395.172-.151 0-.282-.057-.39-.172-.11-.116-.165-.253-.165-.412 0-.163.055-.302.164-.417.11-.115.24-.173.39-.173zm-.338 2.278h.68v5.53h-.68v-5.53zm2.27 0h.69v.808c.205-.319.422-.557.65-.714.228-.158.466-.237.713-.237.187 0 .386.063.598.188l-.352.6c-.141-.064-.26-.096-.357-.096-.224 0-.441.097-.65.292-.209.195-.368.497-.477.907-.077.29-.118.849-.125 1.679v2.104h-.69v-5.531zM84.677 28c.153 0 .285.058.394.173.11.115.164.254.164.417 0 .159-.055.296-.164.412-.109.115-.24.172-.395.172-.15 0-.281-.057-.39-.172-.11-.116-.164-.253-.164-.412 0-.163.054-.302.164-.417.109-.115.24-.173.39-.173zm-.338 2.278h.68v5.53h-.68v-5.53zm2.525 0h.675v.99c.27-.379.569-.663.896-.85.328-.189.685-.283 1.07-.283.392 0 .74.105 1.044.315.303.21.527.494.672.85.144.355.217.91.217 1.662v2.847h-.67V33.17c0-.637-.026-1.062-.077-1.276-.08-.366-.232-.641-.453-.826-.222-.185-.511-.277-.868-.277-.408 0-.773.142-1.096.427-.323.285-.536.637-.639 1.058-.064.274-.096.776-.096 1.504v2.029h-.675v-5.531zm10.983 0h.68v4.407c0 .776-.064 1.344-.193 1.703-.177.509-.483.9-.92 1.175-.437.274-.963.412-1.576.412-.45 0-.854-.067-1.212-.201s-.65-.314-.875-.54c-.225-.225-.432-.554-.621-.988h.732c.2.366.456.637.771.813.315.177.705.265 1.171.265.46 0 .847-.09 1.164-.272.316-.182.542-.41.677-.684.135-.275.202-.717.202-1.327v-.285c-.253.34-.563.6-.93.78-.366.182-.755.273-1.166.273-.482 0-.935-.126-1.359-.379-.424-.252-.752-.592-.983-1.02-.231-.426-.347-.896-.347-1.407 0-.512.12-.99.362-1.432.24-.442.574-.792 1-1.05.425-.257.874-.386 1.346-.386.392 0 .758.086 1.097.257.339.171.666.453.98.846v-.96zm-1.99.544c-.382 0-.737.097-1.065.292-.328.195-.585.464-.77.808-.187.344-.28.716-.28 1.116 0 .607.192 1.108.578 1.505.385.396.885.595 1.499.595.62 0 1.118-.197 1.496-.59.377-.393.566-.91.566-1.55 0-.417-.087-.79-.26-1.116-.174-.328-.42-.586-.737-.776-.318-.19-.66-.284-1.027-.284zm14.458-1.104l-.559.453c-.308-.424-.679-.745-1.11-.964-.433-.218-.907-.327-1.425-.327-.565 0-1.089.143-1.57.43-.483.285-.856.67-1.121 1.153s-.398 1.026-.398 1.63c0 .911.297 1.672.89 2.282.592.61 1.34.915 2.243.915.992 0 1.823-.41 2.491-1.23l.56.447c-.354.475-.795.842-1.324 1.101-.528.26-1.118.389-1.77.389-1.24 0-2.219-.436-2.935-1.307-.601-.735-.902-1.623-.902-2.664 0-1.094.364-2.015 1.092-2.763.728-.747 1.64-1.12 2.735-1.12.662 0 1.26.137 1.792.414.534.276.97.663 1.311 1.161zm1.76-1.576h.674v3.127c.273-.38.574-.664.901-.852.328-.188.683-.282 1.065-.282.392 0 .74.105 1.044.315.303.21.527.493.672.847.145.354.217.909.217 1.665v2.847h-.675V33.17c0-.637-.024-1.062-.072-1.276-.084-.366-.235-.641-.456-.826-.22-.185-.508-.277-.865-.277-.408 0-.773.142-1.096.427-.323.285-.536.637-.638 1.058-.058.24-.09.664-.096 1.269v2.264h-.675v-7.667zm11.691 2.136v5.53h-.665v-.95c-.283.363-.6.636-.952.819-.352.183-.736.274-1.154.274-.742 0-1.376-.284-1.901-.851-.525-.568-.788-1.259-.788-2.072 0-.797.265-1.478.795-2.044.53-.566 1.168-.849 1.913-.849.43 0 .82.097 1.169.29.349.193.655.483.918.87v-1.017h.665zm-2.699.544c-.376 0-.723.097-1.04.292-.319.195-.572.468-.76.82-.188.353-.281.726-.281 1.12 0 .39.094.762.284 1.118.19.356.444.633.764.831.32.198.662.297 1.029.297.369 0 .72-.098 1.05-.294.331-.197.586-.463.764-.799.178-.335.267-.713.267-1.133 0-.64-.2-1.176-.6-1.607-.4-.43-.892-.645-1.477-.645zm4.666-.544h.674v.99c.27-.379.569-.663.897-.85.327-.189.684-.283 1.07-.283.391 0 .74.105 1.043.315.303.21.527.494.672.85.145.355.217.91.217 1.662v2.847h-.67V33.17c0-.637-.026-1.062-.077-1.276-.08-.366-.231-.641-.453-.826-.222-.185-.51-.277-.867-.277-.408 0-.774.142-1.097.427-.323.285-.536.637-.638 1.058-.057.244-.09.667-.096 1.27v2.263h-.675v-5.531zm10.983 0h.68v4.407c0 .776-.065 1.344-.194 1.703-.176.509-.483.9-.92 1.175-.437.274-.962.412-1.576.412-.45 0-.854-.067-1.212-.201s-.65-.314-.875-.54c-.224-.225-.432-.554-.621-.988h.732c.2.366.457.637.771.813.315.177.706.265 1.171.265.46 0 .848-.09 1.164-.272.317-.182.542-.41.677-.684.135-.275.203-.717.203-1.327v-.285c-.254.34-.564.6-.93.78-.367.182-.755.273-1.167.273-.482 0-.935-.126-1.359-.379-.424-.252-.751-.592-.983-1.02-.231-.426-.347-.896-.347-1.407 0-.512.12-.99.362-1.432.24-.442.574-.792 1-1.05.425-.257.874-.386 1.347-.386.392 0 .757.086 1.096.257.339.171.666.453.98.846v-.96zm-1.99.544c-.383 0-.738.097-1.066.292-.327.195-.584.464-.77.808-.187.344-.28.716-.28 1.116 0 .607.193 1.108.578 1.505.386.396.885.595 1.499.595.62 0 1.119-.197 1.496-.59.378-.393.566-.91.566-1.55 0-.417-.086-.79-.26-1.116-.173-.328-.42-.586-.737-.776-.318-.19-.66-.284-1.027-.284zm7.002-.687c.893 0 1.606.358 2.14 1.073.379.505.571 1.135.578 1.891h-4.713c.013.644.207 1.172.583 1.584.376.412.84.617 1.393.617.266 0 .526-.049.778-.147.252-.098.467-.229.643-.391.177-.163.368-.426.574-.788l.568.315c-.186.386-.401.698-.645.935-.245.237-.52.418-.824.542-.306.123-.651.185-1.037.185-.854 0-1.522-.296-2.004-.887s-.723-1.26-.723-2.006c0-.701.204-1.326.612-1.876.517-.698 1.21-1.047 2.077-1.047zm.01.681c-.514 0-.956.175-1.326.524-.27.254-.474.636-.612 1.144h3.904c-.09-.38-.221-.683-.393-.91-.172-.227-.4-.41-.682-.55-.283-.138-.58-.208-.891-.208z" transform="translate(-44 -139) translate(44 139)"/>
            </g>
        </g>
    </g>
</svg>
